<?xml version="1.0" standalone="no"?><!DOCTYPE svg PUBLIC "-//W3C//DTD SVG 1.1//EN" "http://www.w3.org/Graphics/SVG/1.1/DTD/svg11.dtd"><svg class="icon" width="200px" height="199.80px" viewBox="0 0 1025 1024" version="1.1" xmlns="http://www.w3.org/2000/svg"><path fill="#333333" d="M936.425739 31.120696 87.574261 31.120696C39.290435 31.120696 0 69.632 0 116.98087l0 636.037565c0 47.326609 39.290435 85.837913 87.574261 85.837913l500.224 0 226.504348 163.951304 60.126609-163.951304 62.018783 0c48.283826 0 87.574261-38.511304 87.574261-85.837913L1024.022261 116.98087C1024 69.632 984.709565 31.120696 936.425739 31.120696zM979.478261 753.040696c0 22.77287-19.300174 41.316174-43.052522 41.316174l-93.117217 0-50.576696 137.906087-190.553043-137.906087L87.574261 794.35687C63.821913 794.35687 44.521739 775.813565 44.521739 753.040696L44.521739 116.98087c0-22.79513 19.300174-41.338435 43.052522-41.338435l848.873739 0C960.178087 75.642435 979.478261 94.185739 979.478261 116.98087L979.478261 753.040696zM773.721043 430.191304m-48.996174 0a2.201 2.201 0 1 0 97.992348 0 2.201 2.201 0 1 0-97.992348 0ZM512 430.191304m-48.996174 0a2.201 2.201 0 1 0 97.992348 0 2.201 2.201 0 1 0-97.992348 0ZM250.61287 430.191304m-48.996174 0a2.201 2.201 0 1 0 97.992348 0 2.201 2.201 0 1 0-97.992348 0Z" /></svg>