<?xml version="1.0" standalone="no"?><!DOCTYPE svg PUBLIC "-//W3C//DTD SVG 1.1//EN" "http://www.w3.org/Graphics/SVG/1.1/DTD/svg11.dtd"><svg class="icon" width="200px" height="200.00px" viewBox="0 0 1024 1024" version="1.1" xmlns="http://www.w3.org/2000/svg"><path fill="#34dcbe" d="M902.43 425.984H648.193c98.509-373.432-67.87-392.52-67.87-392.52-70.534 0-55.911 57.262-61.236 66.765 0 182.682-189.03 325.837-189.03 325.837v518.021c0 51.118 67.87 69.51 94.494 69.51h382.034c35.922 0 65.209-96.79 65.209-96.79 94.494-329.891 94.494-428.031 94.494-428.031 0.041-68.158-63.856-62.71-63.856-62.71z m-676.7 0.246H73.524c-31.457 0-31.949 31.703-31.949 31.703l31.458 522.445c0 33.177 32.44 33.177 32.44 33.177H237.24c27.444 0 27.198-21.954 27.198-21.954V465.838c0-40.14-38.707-39.608-38.707-39.608z"  /></svg>